<svg aria-hidden="true" style="position: absolute; width: 0; height: 0; overflow: hidden;" version="1.1" xmlns="http://www.w3.org/2000/svg" xmlns:xlink="http://www.w3.org/1999/xlink">
<defs>
<symbol id="icon-home" viewBox="0 0 32 32">
<path d="M32 18.451l-16-12.42-16 12.42v-5.064l16-12.42 16 12.42zM28 18v12h-8v-8h-8v8h-8v-12l12-9z"></path>
</symbol>
<symbol id="icon-home3" viewBox="0 0 32 32">
<path d="M32 19l-6-6v-9h-4v5l-6-6-16 16v1h4v10h10v-6h4v6h10v-10h4z"></path>
</symbol>
<symbol id="icon-undo2" viewBox="0 0 32 32">
<path d="M23.808 32c3.554-6.439 4.153-16.26-9.808-15.932v7.932l-12-12 12-12v7.762c16.718-0.436 18.58 14.757 9.808 24.238z"></path>
</symbol>
<symbol id="icon-redo2" viewBox="0 0 32 32">
<path d="M18 7.762v-7.762l12 12-12 12v-7.932c-13.961-0.328-13.362 9.493-9.808 15.932-8.772-9.482-6.909-24.674 9.808-24.238z"></path>
</symbol>
<symbol id="icon-forward" viewBox="0 0 32 32">
<path d="M8.192 0c-3.554 6.439-4.153 16.259 9.808 15.932v-7.932l12 12-12 12v-7.762c-16.718 0.436-18.58-14.757-9.808-24.238z"></path>
</symbol>
<symbol id="icon-reply" viewBox="0 0 32 32">
<path d="M14 24.238v7.762l-12-12 12-12v7.932c13.961 0.327 13.362-9.493 9.808-15.932 8.772 9.482 6.909 24.674-9.808 24.238z"></path>
</symbol>
<symbol id="icon-bookmark" viewBox="0 0 32 32">
<path d="M6 0v32l10-10 10 10v-32z"></path>
</symbol>
<symbol id="icon-bookmarks" viewBox="0 0 32 32">
<path d="M8 4v28l10-10 10 10v-28zM24 0h-20v28l2-2v-24h18z"></path>
</symbol>
<symbol id="icon-blocked" viewBox="0 0 32 32">
<path d="M27.314 4.686c-3.022-3.022-7.040-4.686-11.314-4.686s-8.292 1.664-11.314 4.686c-3.022 3.022-4.686 7.040-4.686 11.314s1.664 8.292 4.686 11.314c3.022 3.022 7.040 4.686 11.314 4.686s8.292-1.664 11.314-4.686c3.022-3.022 4.686-7.040 4.686-11.314s-1.664-8.292-4.686-11.314zM28 16c0 2.588-0.824 4.987-2.222 6.949l-16.727-16.727c1.962-1.399 4.361-2.222 6.949-2.222 6.617 0 12 5.383 12 12zM4 16c0-2.588 0.824-4.987 2.222-6.949l16.727 16.727c-1.962 1.399-4.361 2.222-6.949 2.222-6.617 0-12-5.383-12-12z"></path>
</symbol>
<symbol id="icon-cross" viewBox="0 0 32 32">
<path d="M31.708 25.708c-0-0-0-0-0-0l-9.708-9.708 9.708-9.708c0-0 0-0 0-0 0.105-0.105 0.18-0.227 0.229-0.357 0.133-0.356 0.057-0.771-0.229-1.057l-4.586-4.586c-0.286-0.286-0.702-0.361-1.057-0.229-0.13 0.048-0.252 0.124-0.357 0.228 0 0-0 0-0 0l-9.708 9.708-9.708-9.708c-0-0-0-0-0-0-0.105-0.104-0.227-0.18-0.357-0.228-0.356-0.133-0.771-0.057-1.057 0.229l-4.586 4.586c-0.286 0.286-0.361 0.702-0.229 1.057 0.049 0.13 0.124 0.252 0.229 0.357 0 0 0 0 0 0l9.708 9.708-9.708 9.708c-0 0-0 0-0 0-0.104 0.105-0.18 0.227-0.229 0.357-0.133 0.355-0.057 0.771 0.229 1.057l4.586 4.586c0.286 0.286 0.702 0.361 1.057 0.229 0.13-0.049 0.252-0.124 0.357-0.229 0-0 0-0 0-0l9.708-9.708 9.708 9.708c0 0 0 0 0 0 0.105 0.105 0.227 0.18 0.357 0.229 0.356 0.133 0.771 0.057 1.057-0.229l4.586-4.586c0.286-0.286 0.362-0.702 0.229-1.057-0.049-0.13-0.124-0.252-0.229-0.357z"></path>
</symbol>
<symbol id="icon-circle-right" viewBox="0 0 32 32">
<path d="M16 0c-8.837 0-16 7.163-16 16s7.163 16 16 16 16-7.163 16-16-7.163-16-16-16zM16 29c-7.18 0-13-5.82-13-13s5.82-13 13-13 13 5.82 13 13-5.82 13-13 13z"></path>
<path d="M11.086 22.086l2.829 2.829 8.914-8.914-8.914-8.914-2.828 2.828 6.086 6.086z"></path>
</symbol>
<symbol id="icon-circle-left" viewBox="0 0 32 32">
<path d="M16 32c8.837 0 16-7.163 16-16s-7.163-16-16-16-16 7.163-16 16 7.163 16 16 16zM16 3c7.18 0 13 5.82 13 13s-5.82 13-13 13-13-5.82-13-13 5.82-13 13-13z"></path>
<path d="M20.914 9.914l-2.829-2.829-8.914 8.914 8.914 8.914 2.828-2.828-6.086-6.086z"></path>
</symbol>
</defs>
</svg>
