<svg aria-hidden="true" style="position: absolute; width: 0; height: 0; overflow: hidden;" version="1.1" xmlns="http://www.w3.org/2000/svg" xmlns:xlink="http://www.w3.org/1999/xlink">
<defs>
<symbol id="icon-search" viewBox="0 0 32 32">
<path d="M20.142 22.090l9.472 9.471c0.126 0.135 0.278 0.244 0.447 0.319s0.351 0.116 0.536 0.119c0.185 0.003 0.369-0.031 0.54-0.1s0.327-0.172 0.458-0.303c0.131-0.131 0.234-0.287 0.303-0.458s0.103-0.355 0.1-0.54c-0.003-0.185-0.044-0.368-0.119-0.537s-0.184-0.321-0.319-0.447l-9.472-9.471c1.979-2.476 2.934-5.616 2.67-8.775s-1.728-6.096-4.090-8.21c-2.362-2.113-5.444-3.242-8.612-3.153s-6.183 1.386-8.424 3.628c-2.241 2.241-3.539 5.256-3.627 8.424s1.040 6.25 3.153 8.613c2.113 2.363 5.051 3.826 8.209 4.090s6.298-0.691 8.775-2.67zM5.58 19.221c-1.348-1.349-2.267-3.067-2.639-4.937s-0.182-3.809 0.547-5.571c0.729-1.762 1.964-3.269 3.55-4.329s3.449-1.627 5.356-1.628c1.907-0.001 3.772 0.563 5.358 1.621s2.824 2.563 3.555 4.324 0.925 3.7 0.555 5.571c-0.37 1.871-1.286 3.59-2.632 4.941l-0.009 0.009-0.009 0.007c-1.809 1.805-4.261 2.819-6.817 2.817s-5.007-1.017-6.814-2.825z"></path>
</symbol>
<symbol id="icon-Vector-3" viewBox="0 0 32 32">
<path stroke-linejoin="round" stroke-linecap="butt" stroke-miterlimit="4" stroke-width="0.8649" d="M16 0.865l4.49 10.234 10.645 1.328-7.87 7.651 2.089 11.055-9.354-5.505-9.354 5.506 2.089-11.055-7.87-7.654 10.646-1.328 4.489-10.233z"></path>
</symbol>
<symbol id="icon-Vector-plus" viewBox="0 0 32 32">
<path d="M16 0c-8.822 0-16 7.178-16 16s7.178 16 16 16c8.822 0 16-7.178 16-16s-7.178-16-16-16zM16 2.462c7.492 0 13.538 6.047 13.538 13.538s-6.047 13.538-13.538 13.538c-7.492 0-13.538-6.047-13.538-13.538s6.047-13.538 13.538-13.538zM14.769 8.615v6.154h-6.154v2.462h6.154v6.154h2.462v-6.154h6.154v-2.462h-6.154v-6.154h-2.462z"></path>
</symbol>
<symbol id="icon-Ellipse-2" viewBox="0 0 32 32">
<path d="M32 16c0 8.837-7.163 16-16 16s-16-7.163-16-16c0-8.837 7.163-16 16-16s16 7.163 16 16z"></path>
</symbol>
</defs>
</svg>
